<?xml version="1.0" ?><!-- Uploaded to: SVG Repo, www.svgrepo.com, Generator: SVG Repo Mixer Tools -->
<svg width="800px" height="800px" viewBox="0 0 80 80" data-name="Layer 1" id="Layer_1" xmlns="http://www.w3.org/2000/svg"><defs><style>.cls-1,.cls-2,.cls-3{fill:none;}.cls-1{stroke:#5ac0e0;}.cls-1,.cls-2,.cls-3,.cls-5{stroke-linecap:round;stroke-linejoin:round;stroke-width:4px;}.cls-2{stroke:#76d1ff;}.cls-3,.cls-5{stroke:#000000;}.cls-4{fill:#76d1ff;}.cls-5{fill:#f4f4f4;}</style></defs><title/><path class="cls-1" d="M61.8585,42.1758a23.0045,23.0045,0,0,0-40.43-20.7471"/><path class="cls-2" d="M63.99,45.3482A26.1229,26.1229,0,1,0,13.88,35"/><line class="cls-3" x1="40" x2="40" y1="39" y2="62.3842"/><polygon class="cls-4" points="60 70.434 60 63 20 62 20 68.747 60 70.434"/><path class="cls-3" d="M20,62.3843c13.3333-5.6,26.6667,5.6,40,0"/><path class="cls-3" d="M20,69.3843c13.3333-5.6,26.6667,5.6,40,0"/><path class="cls-5" d="M40,31V11.4006a2.4,2.4,0,0,0-4.7759-.3394l-1.0558,8.5724a4,4,0,0,0,.54,2.5469Z"/><path class="cls-5" d="M36.5359,37,19.5623,46.8a2.4,2.4,0,0,0,2.094,4.3057l7.9519-3.3718a4.0006,4.0006,0,0,0,1.9357-1.7411Z"/><path class="cls-5" d="M43.4641,37l16.9736,9.8A2.4,2.4,0,0,0,63.12,42.8334l-6.896-5.2006a4,4,0,0,0-2.4758-.8058Z"/><circle class="cls-5" cx="40" cy="35" r="4"/></svg>