<?xml version="1.0" encoding="iso-8859-1"?>
<!-- Uploaded to: SVG Repo, www.svgrepo.com, Generator: SVG Repo Mixer Tools -->
<svg version="1.1" id="Layer_1" xmlns="http://www.w3.org/2000/svg" xmlns:xlink="http://www.w3.org/1999/xlink" 
	 viewBox="0 0 512 512" xml:space="preserve">
<rect x="334.585" y="343.908" transform="matrix(-0.9166 -0.3997 0.3997 -0.9166 562.6317 842.9258)" style="fill:#3C3A41;" width="69.255" height="37.772"/>
<path style="fill:#57555C;" d="M423.47,475.201l-35.023-15.273c-11.616-5.066-18.011-17.654-15.253-30.023l12.108-54.285
	c0.739-3.313,2.109-6.453,4.033-9.249l31.543-45.808c7.187-10.438,20.764-14.316,32.38-9.251l35.023,15.273
	c11.616,5.066,18.011,17.654,15.253,30.023l0,0c-8.736,39.168-24.925,76.29-47.683,109.342l0,0
	C448.663,476.388,435.087,480.266,423.47,475.201z"/>
<g>
	<path style="fill:#3C3A41;" d="M414.898,471.457l-26.448-11.534c-11.615-5.066-18.013-17.644-15.258-30.026l12.111-54.273
		c0.742-3.317,2.108-6.448,4.033-9.249l31.538-45.819c7.193-10.429,20.77-14.314,32.385-9.249l26.448,11.534
		c-11.615-5.065-25.192-1.181-32.371,9.255l-31.553,45.813c-1.926,2.8-3.29,5.932-4.033,9.249l-12.096,54.28
		C396.884,453.813,403.282,466.391,414.898,471.457z"/>
	
		<rect x="108.187" y="343.934" transform="matrix(0.9166 -0.3997 0.3997 0.9166 -133.12 87.3303)" style="fill:#3C3A41;" width="69.255" height="37.772"/>
</g>
<path style="fill:#57555C;" d="M88.533,475.201l35.023-15.273c11.616-5.066,18.011-17.654,15.253-30.023l-12.108-54.285
	c-0.739-3.313-2.109-6.453-4.033-9.249l-31.543-45.808c-7.187-10.438-20.764-14.316-32.38-9.251l-35.023,15.273
	c-11.616,5.066-18.011,17.654-15.253,30.023l0,0c8.736,39.168,24.925,76.29,47.683,109.342l0,0
	C63.341,476.388,76.917,480.266,88.533,475.201z"/>
<path style="fill:#3C3A41;" d="M97.106,471.457l26.448-11.534c11.615-5.066,18.013-17.644,15.258-30.026l-12.111-54.273
	c-0.742-3.317-2.108-6.448-4.033-9.249L91.13,320.556c-7.193-10.429-20.77-14.314-32.385-9.249l-26.448,11.534
	c11.615-5.065,25.192-1.181,32.371,9.255l31.553,45.813c1.926,2.8,3.29,5.932,4.033,9.249l12.096,54.28
	C115.12,453.813,108.722,466.391,97.106,471.457z"/>
<path style="fill:#57555C;" d="M384.654,231.89l-23.375,92.667c-0.598,3.306-1.354,6.564-2.251,9.744
	c-5.965,21.282-18.228,39.652-34.489,53.22c-18.7,15.584-42.689,24.823-68.537,24.823c-48.325,0-90.196-32.285-103.025-78.044
	c-0.898-3.18-1.653-6.438-2.251-9.744l-23.375-92.667c-8.233-32.615-3.841-65.136,9.728-92.731
	c11.916-24.257,36.677-39.541,63.704-39.541h110.439c27.027,0,51.787,15.284,63.704,39.541
	C388.494,166.754,392.885,199.275,384.654,231.89z"/>
<path style="fill:#3C3A41;" d="M359.027,334.301c-5.965,21.282-18.228,39.652-34.489,53.22
	c-18.7,15.584-42.689,24.823-68.537,24.823c-48.325,0-90.196-32.285-103.025-78.044c19.865-36.488,58.556-61.248,103.025-61.248
	S339.162,297.813,359.027,334.301z"/>
<path style="fill:#00ABE7;" d="M356.225,201.683c0,27.673-22.447,50.104-50.12,50.104c-7.461,0-14.529-1.622-20.888-4.55
	c-7.273-3.337-13.601-8.358-18.479-14.577c-6.738-8.516-10.736-19.283-10.736-30.978c0-27.673,22.431-50.12,50.104-50.12
	c11.696,0,22.463,4.014,30.978,10.736c6.217,4.895,11.255,11.224,14.577,18.496C354.588,187.154,356.225,194.222,356.225,201.683z"
	/>
<path style="fill:#49BAEC;" d="M351.66,180.794l-66.443,66.443c-7.273-3.337-13.601-8.358-18.479-14.577l70.346-70.362
	C343.302,167.195,348.338,173.523,351.66,180.794z"/>
<path style="fill:#00ABE7;" d="M256.002,201.683c0,27.673-22.431,50.104-50.104,50.104c-6.469,0-12.656-1.228-18.338-3.463
	c-5.116-2.015-9.822-4.833-13.962-8.327c-4.046-3.416-7.54-7.445-10.326-11.963c-4.753-7.65-7.493-16.685-7.493-26.351
	c0-27.673,22.447-50.12,50.12-50.12c9.665,0,18.7,2.739,26.351,7.493c4.518,2.786,8.547,6.281,11.948,10.326
	c3.006,3.541,5.509,7.509,7.429,11.79C254.444,187.438,256.002,194.379,256.002,201.683z"/>
<g>
	<path style="fill:#49BAEC;" d="M244.196,169.383l-70.598,70.614c-4.046-3.416-7.54-7.445-10.326-11.963l68.977-68.977
		C236.767,161.843,240.796,165.337,244.196,169.383z"/>
	<path style="fill:#49BAEC;" d="M256.002,201.683c0,27.673-22.431,50.104-50.104,50.104c-6.469,0-12.656-1.228-18.338-3.463
		c19.016-18.196,48.908-50.56,64.066-67.151C254.444,187.438,256.002,194.379,256.002,201.683z"/>
</g>
<circle style="fill:#57555C;" cx="256.006" cy="390.279" r="87.669"/>
<circle style="fill:#3C3A41;" cx="256.006" cy="390.279" r="49.817"/>
<circle style="fill:#787780;" cx="256.037" cy="390.31" r="27.461"/>
<path d="M496.224,321.97c-3.643-2.336-8.492-1.275-10.826,2.37c-2.335,3.645-1.275,8.491,2.37,10.826
	c6.553,4.2,9.815,12.129,8.118,19.735c-8.556,38.363-24.197,74.23-46.488,106.604c-5.048,7.332-14.632,10.07-22.793,6.511
	l-35.023-15.273c-8.16-3.558-12.674-12.446-10.736-21.134l9.102-40.816c0.006-0.028,0.014-0.057,0.019-0.086l2.093-9.382
	l11.053,4.82c1.021,0.445,2.083,0.655,3.129,0.655c3.023,0,5.902-1.759,7.188-4.706c1.729-3.968-0.084-8.586-4.051-10.317
	L398.418,367l28.915-41.993c5.049-7.332,14.635-10.07,22.793-6.511l9.684,4.223c3.971,1.73,8.587-0.085,10.316-4.051
	s-0.084-8.586-4.051-10.316l-9.684-4.223c-15.023-6.553-32.674-1.511-41.966,11.989l-19.729,28.652l-27.201-11.862
	c0.549-2.218,1.038-4.456,1.447-6.688l23.31-92.412c8.301-32.885,4.646-67.726-10.294-98.107c-1.91-3.883-6.603-5.484-10.491-3.575
	c-3.884,1.91-5.485,6.607-3.575,10.491c13.301,27.048,16.554,58.071,9.162,87.356l-23.375,92.668
	c-0.043,0.172-0.08,0.347-0.112,0.522c-0.545,3.017-1.246,6.048-2.086,9.023c-1.939,6.917-4.62,13.539-7.972,19.819
	c-4.407-10.071-10.555-19.401-18.321-27.56c-2.984-3.135-7.946-3.256-11.08-0.274c-3.135,2.983-3.257,7.945-0.274,11.08
	c14.184,14.903,21.996,34.445,21.996,55.027c0,44.017-35.811,79.828-79.828,79.828c-12.001,0-23.534-2.595-34.279-7.712
	c-3.907-1.862-8.584-0.203-10.445,3.706c-1.861,3.908-0.202,8.584,3.706,10.445c12.866,6.127,26.666,9.234,41.017,9.234
	c52.66,0,95.502-42.842,95.502-95.502c0-2.053-0.089-4.094-0.218-6.128l21.949,9.573l-7.689,34.476
	c-3.568,15.996,4.746,32.361,19.769,38.912l35.023,15.273c4.421,1.929,9.069,2.852,13.664,2.852
	c11.022-0.001,21.745-5.316,28.304-14.841c23.436-34.037,39.881-71.747,48.876-112.081
	C514.307,344.311,508.295,329.705,496.224,321.97z M352.502,367.581c4.027-6.232,7.425-12.807,10.162-19.679l22.976,10.019
	l-2.759,4.006c-2.507,3.641-4.266,7.674-5.229,11.988l-0.943,4.225L352.502,367.581z"/>
<path d="M187.85,163.437c3.913-1.851,5.585-6.521,3.735-10.435c-1.85-3.913-6.522-5.584-10.435-3.735
	c-20.17,9.536-33.202,30.108-33.202,52.41c0,31.952,25.995,57.946,57.946,57.946c21.371,0,40.063-11.638,50.109-28.902
	c10.045,17.263,28.738,28.902,50.109,28.902c31.951,0,57.945-25.995,57.945-57.946s-25.995-57.946-57.945-57.946
	c-21.379,0-40.077,11.647-50.12,28.919c-8.104-13.948-21.882-24.373-38.481-27.753c-4.239-0.866-8.38,1.875-9.243,6.116
	c-0.864,4.241,1.874,8.379,6.116,9.243c19.575,3.986,33.782,21.406,33.782,41.421c0,23.309-18.963,42.272-42.272,42.272
	s-42.272-18.963-42.272-42.272C163.621,185.407,173.132,170.396,187.85,163.437z M306.111,159.406
	c23.309,0,42.271,18.963,42.271,42.272s-18.962,42.272-42.271,42.272s-42.272-18.963-42.272-42.272S282.803,159.406,306.111,159.406
	z"/>
<path d="M256.032,425.61c16.771,0,30.839-11.76,34.414-27.465h12.778c4.329,0,7.837-3.509,7.837-7.837s-3.508-7.837-7.837-7.837
	h-12.778c-3.576-15.704-17.642-27.465-34.414-27.465c-16.772,0-30.839,11.76-34.415,27.465h-12.839
	c-4.328,0-7.837,3.509-7.837,7.837s3.509,7.837,7.837,7.837h12.839C225.193,413.849,239.26,425.61,256.032,425.61z M256.032,370.68
	c10.622,0,19.279,8.486,19.598,19.032c-0.015,0.197-0.03,0.394-0.03,0.596s0.016,0.398,0.03,0.596
	c-0.319,10.546-8.976,19.032-19.598,19.032c-10.822,0-19.628-8.805-19.628-19.628C236.404,379.484,245.21,370.68,256.032,370.68z"/>
<path d="M176.174,390.279c0-44.017,35.811-79.828,79.828-79.828c11.89,0,23.326,2.549,33.99,7.575
	c3.915,1.844,8.584,0.167,10.429-3.748c1.845-3.915,0.167-8.585-3.748-10.429c-10.406-4.905-21.421-7.838-32.836-8.756v-16.019
	c0-4.328-3.508-7.837-7.837-7.837c-4.328,0-7.837,3.509-7.837,7.837v16.028c-35.693,2.913-65.89,25.537-79.666,56.94
	c-3.359-6.291-6.035-12.932-7.98-19.866c-0.833-2.953-1.534-5.985-2.081-9.011c-0.031-0.174-0.069-0.348-0.113-0.521l-23.375-92.669
	c-7.392-29.284-4.138-60.307,9.163-87.357c9.799-19.948,29.849-33.299,51.95-34.977c0.08,0.079,0.154,0.163,0.238,0.24l27.692,25.23
	c1.443,1.314,3.326,2.044,5.278,2.044h53.655c1.952,0,3.835-0.729,5.278-2.044l27.497-25.053c0.14-0.127,0.268-0.264,0.397-0.4
	c13.196,1.02,25.815,6.143,35.962,14.704c3.308,2.792,8.252,2.372,11.043-0.936s2.372-8.252-0.936-11.043
	c-14.215-11.994-32.308-18.598-50.945-18.598H200.783c-29.864,0-57.63,17.241-70.736,43.92
	c-14.938,30.38-18.594,65.222-10.295,98.106l23.311,92.413c0.411,2.238,0.9,4.475,1.447,6.688l-27.201,11.862L97.581,316.12
	c-9.296-13.498-26.944-18.541-41.967-11.989l-35.023,15.271c-15.023,6.552-23.336,22.916-19.769,38.913
	c8.996,40.334,25.441,78.043,48.877,112.081c6.56,9.527,17.28,14.841,28.302,14.841c4.596,0,9.244-0.924,13.664-2.852l35.023-15.273
	c15.022-6.552,23.336-22.916,19.769-38.913l-7.69-34.476l21.933-9.566c-0.129,2.025-0.202,4.065-0.202,6.121
	c0,25.59,9.988,49.627,28.124,67.682c1.53,1.522,3.529,2.283,5.53,2.283c2.011,0,4.023-0.77,5.554-2.307
	c3.053-3.068,3.043-8.029-0.024-11.082C184.522,431.76,176.174,411.668,176.174,390.279z M279.892,119.478h-47.586l-13.196-12.023
	h73.977L279.892,119.478z M120.423,452.744L85.4,468.017l0,0c-8.161,3.558-17.744,0.819-22.792-6.511
	c-22.291-32.374-37.933-68.241-46.489-106.604c-1.937-8.688,2.578-17.575,10.737-21.134l35.023-15.273
	c2.401-1.047,4.925-1.549,7.422-1.549c5.985,0,11.809,2.886,15.371,8.06L113.587,367l-10.96,4.781
	c-3.968,1.729-5.781,6.349-4.05,10.316c1.285,2.948,4.165,4.706,7.187,4.706c1.045,0,2.109-0.211,3.129-0.655l11.053-4.82
	l2.096,9.399c0.003,0.016,0.007,0.03,0.01,0.046l9.109,40.839C133.097,440.299,128.582,449.187,120.423,452.744z M134.35,373.915
	c-0.961-4.313-2.721-8.347-5.228-11.988l-2.759-4.006l22.977-10.02c2.737,6.874,6.125,13.454,10.149,19.684l-24.198,10.554
	L134.35,373.915z"/>
<path d="M198.66,72.013c4.328,0,7.837-3.509,7.837-7.837V34.057c0-4.328-3.509-7.837-7.837-7.837c-4.328,0-7.837,3.509-7.837,7.837
	v30.119C190.823,68.504,194.332,72.013,198.66,72.013z"/>
<path d="M236.888,72.013c4.328,0,7.837-3.509,7.837-7.837V34.057c0-4.328-3.509-7.837-7.837-7.837c-4.328,0-7.837,3.509-7.837,7.837
	v30.119C229.051,68.504,232.56,72.013,236.888,72.013z"/>
<path d="M275.115,72.013c4.329,0,7.837-3.509,7.837-7.837V34.057c0-4.328-3.508-7.837-7.837-7.837c-4.329,0-7.837,3.509-7.837,7.837
	v30.119C267.278,68.504,270.787,72.013,275.115,72.013z"/>
<path d="M313.343,72.013c4.329,0,7.837-3.509,7.837-7.837V34.057c0-4.328-3.508-7.837-7.837-7.837c-4.329,0-7.837,3.509-7.837,7.837
	v30.119C305.506,68.504,309.015,72.013,313.343,72.013z"/>
</svg>